<?xml version="1.0" encoding="UTF-8"?>
<svg width="16px" height="16px" viewBox="0 0 16 16" version="1.1" xmlns="http://www.w3.org/2000/svg" xmlns:xlink="http://www.w3.org/1999/xlink">
    <title>apple</title>
    <g id="apple" stroke="none" stroke-width="1" fill="none" fill-rule="evenodd">
        <path d="M8,4 L8,6 L7,6 L7,7 L12,7 L12,6 L13,6 L13,7 L14,7 L14,12 L13,12 L13,13 L12,13 L12,14 L4,14 L4,13 L3,13 L3,12 L2,12 L2,6 L3,6 L3,5 L4,5 L4,4 L8,4 Z M12,10 L10,10 L10,11 L8,11 L8,13 L11,13 L11,12 L12,12 L12,10 Z M7,11 L6,11 L6,12 L7,12 L7,11 Z M13,2 L13,5 L12,5 L12,6 L10,6 L10,5 L9,5 L9,3 L10,3 L10,2 L13,2 Z M11,4 L10,4 L10,5 L11,5 L11,4 Z" fill="#000000"></path>
    </g>
</svg>