<?xml version="1.0" encoding="UTF-8"?>
<svg width="16px" height="16px" viewBox="0 0 16 16" version="1.1" xmlns="http://www.w3.org/2000/svg" xmlns:xlink="http://www.w3.org/1999/xlink">
    <title>axe</title>
    <g id="axe" stroke="none" stroke-width="1" fill="none" fill-rule="evenodd">
        <path d="M9,14 L9,15 L7,15 L7,14 L9,14 Z M9,12 L9,13 L7,13 L7,12 L9,12 Z M9,7 L9,11 L7,11 L7,7 L9,7 Z M5,0 L5,1 L4,1 L4,3 L6,3 L6,5 L7,5 L7,6 L4,6 L4,8 L5,8 L5,9 L2,9 L2,8 L1,8 L1,7 L0,7 L0,2 L1,2 L1,1 L2,1 L2,0 L5,0 Z M15,7 L15,8 L14,8 L14,9 L11,9 L11,8 L12,8 L12,6 L9,6 L9,5 L10,5 L10,3 L12,3 L12,1 L11,1 L11,0 L14,0 L14,1 L13,1 L13,2 L14,2 L14,7 L13,7 L13,8 L14,8 L14,7 L15,7 Z M3,7 L2,7 L2,8 L3,8 L3,7 Z M2,2 L1,2 L1,7 L2,7 L2,2 Z M16,2 L16,7 L15,7 L15,2 L16,2 Z M8,3 L8,4 L7,4 L7,3 L8,3 Z M7,2 L7,3 L6,3 L6,2 L7,2 Z M10,2 L10,3 L9,3 L9,2 L10,2 Z M3,1 L2,1 L2,2 L3,2 L3,1 Z M9,1 L9,2 L7,2 L7,1 L9,1 Z M15,1 L15,2 L14,2 L14,1 L15,1 Z" fill="#000000"></path>
    </g>
</svg>