<?xml version="1.0" encoding="UTF-8"?>
<svg width="16px" height="16px" viewBox="0 0 16 16" version="1.1" xmlns="http://www.w3.org/2000/svg" xmlns:xlink="http://www.w3.org/1999/xlink">
    <title>backpack</title>
    <g id="backpack" stroke="none" stroke-width="1" fill="none" fill-rule="evenodd">
        <path d="M3,9 L3,10 L6,10 L6,11 L7,11 L7,12 L9,12 L9,11 L10,11 L10,10 L13,10 L13,9 L14,9 L14,10 L15,10 L15,14 L14,14 L14,15 L13,15 L13,16 L3,16 L3,15 L2,15 L2,14 L1,14 L1,10 L2,10 L2,9 L3,9 Z M3,12 L2,12 L2,13 L3,13 L3,12 Z M14,12 L13,12 L13,13 L14,13 L14,12 Z M4,11 L3,11 L3,12 L4,12 L4,11 Z M13,11 L12,11 L12,12 L13,12 L13,11 Z M9,11 L7,11 L7,8 L9,8 L9,7 L7,7 L7,8 L6,8 L6,9 L3,9 L3,8 L2,8 L2,5 L3,5 L3,4 L4,4 L4,3 L5,3 L5,1 L6,1 L6,0 L10,0 L10,1 L11,1 L11,3 L12,3 L12,4 L13,4 L13,5 L14,5 L14,8 L13,8 L13,9 L10,9 L10,8 L9,8 L9,11 Z M9,1 L7,1 L7,2 L6,2 L6,3 L10,3 L10,2 L9,2 L9,1 Z" fill="#000000"></path>
    </g>
</svg>