<?xml version="1.0" encoding="UTF-8"?>
<svg width="16px" height="16px" viewBox="0 0 16 16" version="1.1" xmlns="http://www.w3.org/2000/svg" xmlns:xlink="http://www.w3.org/1999/xlink">
    <title>battery</title>
    <g id="battery" stroke="none" stroke-width="1" fill="none" fill-rule="evenodd">
        <path d="M12,11 L12,12 L2,12 L2,11 L12,11 Z M2,5 L2,11 L1,11 L1,5 L2,5 Z M13,5 L13,11 L12,11 L12,5 L13,5 Z M5,6 L5,10 L3,10 L3,6 L5,6 Z M8,6 L8,10 L6,10 L6,6 L8,6 Z M11,6 L11,10 L9,10 L9,6 L11,6 Z M15,6 L15,10 L14,10 L14,6 L15,6 Z M12,4 L12,5 L2,5 L2,4 L12,4 Z" fill="#000000"></path>
    </g>
</svg>