<?xml version="1.0" encoding="UTF-8"?>
<svg width="16px" height="16px" viewBox="0 0 16 16" version="1.1" xmlns="http://www.w3.org/2000/svg" xmlns:xlink="http://www.w3.org/1999/xlink">
    <title>bird</title>
    <g id="bird" stroke="none" stroke-width="1" fill="none" fill-rule="evenodd">
        <path d="M12,6 L12,8 L13,8 L13,9 L12,9 L12,11 L11,11 L11,12 L10,12 L10,13 L9,13 L9,12 L7,12 L7,13 L6,13 L6,11 L4,11 L4,10 L3,10 L3,9 L5,9 L5,6 L6,6 L6,5 L11,5 L11,6 L10,6 L10,8 L11,8 L11,6 L12,6 Z M7,10 L6,10 L6,11 L7,11 L7,10 Z M8,6 L7,6 L7,8 L8,8 L8,6 Z" fill="#000000"></path>
    </g>
</svg>