<?xml version="1.0" encoding="UTF-8"?>
<svg width="16px" height="16px" viewBox="0 0 16 16" version="1.1" xmlns="http://www.w3.org/2000/svg" xmlns:xlink="http://www.w3.org/1999/xlink">
    <title>bone</title>
    <g id="bone" stroke="none" stroke-width="1" fill="none" fill-rule="evenodd">
        <path d="M14,4 L14,5 L15,5 L15,7 L14,7 L14,8 L12,8 L12,7 L11,7 L11,8 L10,8 L10,9 L9,9 L9,10 L8,10 L8,11 L7,11 L7,12 L8,12 L8,14 L7,14 L7,15 L5,15 L5,14 L4,14 L4,12 L2,12 L2,11 L1,11 L1,9 L2,9 L2,8 L4,8 L4,9 L5,9 L5,8 L6,8 L6,7 L7,7 L7,7 L7,6 L7,6 L8,6 L8,5 L9,5 L9,4 L8,4 L8,4 L8,2 L8,2 L9,2 L9,1 L11,1 L11,2 L12,2 L12,4 L11,4 L11,5 L12,5 L12,4 L14,4 Z M5,11 L4,11 L4,12 L5,12 L5,11 Z M8,9 L7,9 L7,10 L8,10 L8,9 Z M9,8 L8,8 L8,9 L9,9 L9,8 Z M10,7 L9,7 L9,8 L10,8 L10,7 Z" fill="#000000"></path>
    </g>
</svg>