<?xml version="1.0" encoding="UTF-8"?>
<svg width="16px" height="16px" viewBox="0 0 16 16" version="1.1" xmlns="http://www.w3.org/2000/svg" xmlns:xlink="http://www.w3.org/1999/xlink">
    <title>book-open</title>
    <g id="book-open" stroke="none" stroke-width="1" fill="none" fill-rule="evenodd">
        <path d="M14.5,14 L14.5,15 L1.5,15 L1.5,14 L14.5,14 Z M14.5,2 L14.5,12 L9.5,12 L9.5,13 L8.5,13 L8.5,3 L9.5,3 L9.5,2 L14.5,2 Z M6.5,2 L6.5,3 L7.5,3 L7.5,13 L6.5,13 L6.5,12 L1.5,12 L1.5,2 L6.5,2 Z M11.5,10 L9.5,10 L9.5,11 L11.5,11 L11.5,10 Z M13.5,10 L12.5,10 L12.5,11 L13.5,11 L13.5,10 Z M4.5,10 L2.5,10 L2.5,11 L4.5,11 L4.5,10 Z M6.5,10 L5.5,10 L5.5,11 L6.5,11 L6.5,10 Z M13.5,8 L9.5,8 L9.5,9 L13.5,9 L13.5,8 Z M6.5,8 L2.5,8 L2.5,9 L6.5,9 L6.5,8 Z M11.5,6 L9.5,6 L9.5,7 L11.5,7 L11.5,6 Z M13.5,6 L12.5,6 L12.5,7 L13.5,7 L13.5,6 Z M4.5,6 L2.5,6 L2.5,7 L4.5,7 L4.5,6 Z M6.5,6 L5.5,6 L5.5,7 L6.5,7 L6.5,6 Z M13.5,4 L9.5,4 L9.5,5 L13.5,5 L13.5,4 Z M6.5,4 L2.5,4 L2.5,5 L6.5,5 L6.5,4 Z" fill="#000000"></path>
    </g>
</svg>