<?xml version="1.0" encoding="UTF-8"?>
<svg width="16px" height="16px" viewBox="0 0 16 16" version="1.1" xmlns="http://www.w3.org/2000/svg" xmlns:xlink="http://www.w3.org/1999/xlink">
    <title>bottle-full</title>
    <g id="bottle-full" stroke="none" stroke-width="1" fill="none" fill-rule="evenodd">
        <path d="M7,6 L7,7 L6,7 L6,14 L13,14 L13,15 L3,15 L3,14 L4,14 L4,7 L5,7 L5,6 L7,6 Z M3,6 L3,14 L2,14 L2,6 L3,6 Z M14,6 L14,14 L13,14 L13,6 L14,6 Z M11,6 L11,7 L12,7 L12,13 L7,13 L7,7 L8,7 L8,6 L11,6 Z M4,5 L4,6 L3,6 L3,5 L4,5 Z M13,5 L13,6 L12,6 L12,5 L13,5 Z M5,4 L5,5 L4,5 L4,4 L5,4 Z M12,4 L12,5 L11,5 L11,4 L12,4 Z M12,1 L12,3 L4,3 L4,1 L12,1 Z" fill="#000000"></path>
    </g>
</svg>