<?xml version="1.0" encoding="UTF-8"?>
<svg width="16px" height="16px" viewBox="0 0 16 16" version="1.1" xmlns="http://www.w3.org/2000/svg" xmlns:xlink="http://www.w3.org/1999/xlink">
    <title>bubbles</title>
    <g id="bubbles" stroke="none" stroke-width="1" fill="none" fill-rule="evenodd">
        <path d="M10,15 L10,16 L8,16 L8,15 L10,15 Z M8,13 L8,15 L7,15 L7,13 L8,13 Z M11,13 L11,15 L10,15 L10,13 L11,13 Z M10,12 L10,13 L8,13 L8,12 L10,12 Z M7,11 L7,12 L3,12 L3,11 L7,11 Z M13,11 L13,12 L11,12 L11,11 L13,11 Z M3,7 L3,11 L2,11 L2,7 L3,7 Z M8,7 L8,11 L7,11 L7,7 L8,7 Z M11,9 L11,11 L10,11 L10,9 L11,9 Z M14,9 L14,11 L13,11 L13,9 L14,9 Z M5,8 L5,9 L4,9 L4,8 L5,8 Z M13,8 L13,9 L11,9 L11,8 L13,8 Z M13,6 L13,7 L9,7 L9,6 L13,6 Z M7,6 L7,7 L3,7 L3,6 L7,6 Z M9,2 L9,6 L8,6 L8,2 L9,2 Z M14,2 L14,6 L13,6 L13,2 L14,2 Z M11,3 L11,4 L10,4 L10,3 L11,3 Z M13,1 L13,2 L9,2 L9,1 L13,1 Z" fill="#000000"></path>
    </g>
</svg>