<?xml version="1.0" encoding="UTF-8"?>
<svg width="16px" height="16px" viewBox="0 0 16 16" version="1.1" xmlns="http://www.w3.org/2000/svg" xmlns:xlink="http://www.w3.org/1999/xlink">
    <title>bubble</title>
    <g id="bubble" stroke="none" stroke-width="1" fill="none" fill-rule="evenodd">
        <path d="M10,14 L10,15 L6,15 L6,14 L10,14 Z M6,13 L6,14 L4,14 L4,13 L6,13 Z M12,13 L12,14 L10,14 L10,13 L12,13 Z M13,12 L13,13 L12,13 L12,12 L13,12 Z M4,12 L4,13 L3,13 L3,12 L4,12 Z M12,9 L12,11 L11,11 L11,12 L9,12 L9,10 L10,10 L10,9 L12,9 Z M14,10 L14,12 L13,12 L13,10 L14,10 Z M3,10 L3,12 L2,12 L2,10 L3,10 Z M15,6 L15,10 L14,10 L14,6 L15,6 Z M2,6 L2,10 L1,10 L1,6 L2,6 Z M7,4 L7,5 L8,5 L8,7 L7,7 L7,8 L5,8 L5,7 L4,7 L4,5 L5,5 L5,4 L7,4 Z M14,4 L14,6 L13,6 L13,4 L14,4 Z M3,4 L3,6 L2,6 L2,4 L3,4 Z M13,3 L13,4 L12,4 L12,3 L13,3 Z M4,3 L4,4 L3,4 L3,3 L4,3 Z M6,2 L6,3 L4,3 L4,2 L6,2 Z M12,2 L12,3 L10,3 L10,2 L12,2 Z M10,1 L10,2 L6,2 L6,1 L10,1 Z" fill="#000000"></path>
    </g>
</svg>