<?xml version="1.0" encoding="UTF-8"?>
<svg width="16px" height="16px" viewBox="0 0 16 16" version="1.1" xmlns="http://www.w3.org/2000/svg" xmlns:xlink="http://www.w3.org/1999/xlink">
    <title>bullet</title>
    <g id="bullet" stroke="none" stroke-width="1" fill="none" fill-rule="evenodd">
        <path d="M5,6 L5,7 L6,7 L6,6 L8,6 L8,8 L5,8 L5,10 L4,10 L4,6 L5,6 Z M8,9 L8,10 L8,10 L6,10 L6,9 L8,9 L8,9 Z M11,9 L11,10 L11,10 L9,10 L9,9 L11,9 L11,9 Z M11,6 L11,7 L12,7 L12,9 L11,9 L11,8 L9,8 L9,6 L11,6 Z" fill="#000000"></path>
    </g>
</svg>