<?xml version="1.0" encoding="UTF-8"?>
<svg width="16px" height="16px" viewBox="0 0 16 16" version="1.1" xmlns="http://www.w3.org/2000/svg" xmlns:xlink="http://www.w3.org/1999/xlink">
    <title>cat</title>
    <g id="cat" stroke="none" stroke-width="1" fill="none" fill-rule="evenodd">
        <path d="M12,2 L12,3 L13,3 L13,6 L14,6 L14,7 L13,7 L13,8 L14,8 L14,9 L12,9 L12,10 L10,10 L10,11 L11,11 L11,12 L12,12 L12,15 L9,15 L9,14 L8,14 L8,15 L4,15 L4,14 L2,14 L2,13 L4,13 L4,12 L5,12 L5,11 L6,11 L6,10 L4,10 L4,9 L2,9 L2,8 L3,8 L3,7 L2,7 L2,6 L3,6 L3,3 L4,3 L4,2 L5,2 L5,1 L7,1 L7,3 L9,3 L9,1 L11,1 L11,2 L10,2 L10,5 L12,5 L12,3 L11,3 L11,2 L12,2 Z M10,13 L9,13 L9,14 L10,14 L10,13 Z M8,13 L7,13 L7,14 L8,14 L8,13 Z M2,11 L2,13 L1,13 L1,11 L2,11 Z M3,10 L3,11 L2,11 L2,10 L3,10 Z M8,8 L7,8 L7,9 L8,9 L8,8 Z M10,8 L9,8 L9,9 L10,9 L10,8 Z M9,7 L8,7 L8,8 L9,8 L9,7 Z M7,6 L5,6 L5,7 L7,7 L7,6 Z M12,6 L10,6 L10,7 L12,7 L12,6 Z M6,2 L5,2 L5,3 L4,3 L4,5 L6,5 L6,2 Z" fill="#000000"></path>
    </g>
</svg>