<?xml version="1.0" encoding="UTF-8"?>
<svg width="16px" height="16px" viewBox="0 0 16 16" version="1.1" xmlns="http://www.w3.org/2000/svg" xmlns:xlink="http://www.w3.org/1999/xlink">
    <title>character-3</title>
    <g id="character-3" stroke="none" stroke-width="1" fill="none" fill-rule="evenodd">
        <path d="M11,11 L11,12 L10,12 L10,13 L11,13 L11,14 L12,14 L12,15 L13,15 L13,16 L10,16 L10,15 L9,15 L9,14 L7,14 L7,15 L6,15 L6,16 L3,16 L3,15 L4,15 L4,14 L5,14 L5,13 L6,13 L6,12 L5,12 L5,11 L11,11 Z M4,10 L4,11 L3,11 L3,12 L4,12 L4,14 L1,14 L1,11 L2,11 L2,10 L4,10 Z M14,10 L14,11 L15,11 L15,14 L12,14 L12,12 L13,12 L13,11 L12,11 L12,10 L14,10 Z M9,12 L7,12 L7,13 L9,13 L9,12 Z M6,8 L6,9 L7,9 L7,8 L9,8 L9,9 L10,9 L10,8 L12,8 L12,9 L11,9 L11,10 L5,10 L5,9 L4,9 L4,8 L6,8 Z M11,0 L11,1 L12,1 L12,4 L11,4 L11,5 L5,5 L5,4 L4,4 L4,5 L5,5 L5,6 L11,6 L11,5 L12,5 L12,4 L14,4 L14,6 L13,6 L13,7 L3,7 L3,6 L2,6 L2,4 L4,4 L4,1 L5,1 L5,0 L11,0 Z M9,2 L6,2 L6,3 L9,3 L9,2 Z M6,1 L5,1 L5,2 L6,2 L6,1 Z" fill="#000000"></path>
    </g>
</svg>