<?xml version="1.0" encoding="UTF-8"?>
<svg width="16px" height="16px" viewBox="0 0 16 16" version="1.1" xmlns="http://www.w3.org/2000/svg" xmlns:xlink="http://www.w3.org/1999/xlink">
    <title>character-2</title>
    <g id="character-2" stroke="none" stroke-width="1" fill="none" fill-rule="evenodd">
        <path d="M3,7 L3,8 L4,8 L4,9 L5,9 L5,10 L7,10 L7,9 L9,9 L9,10 L11,10 L11,9 L12,9 L12,8 L13,8 L13,7 L14,7 L14,9 L13,9 L13,10 L12,10 L12,11 L10,11 L10,12 L11,12 L11,15 L12,15 L12,16 L9,16 L9,14 L7,14 L7,16 L4,16 L4,15 L5,15 L5,12 L6,12 L6,11 L4,11 L4,10 L3,10 L3,9 L2,9 L2,7 L3,7 Z M4,12 L4,14 L2,14 L2,12 L4,12 Z M14,12 L14,14 L12,14 L12,12 L14,12 Z M7,7 L7,9 L5,9 L5,7 L7,7 Z M11,7 L11,9 L9,9 L9,7 L11,7 Z M8,0 L8,2 L15,2 L15,3 L14,3 L14,4 L13,4 L13,7 L11,7 L11,6 L9,6 L9,7 L7,7 L7,6 L5,6 L5,7 L3,7 L3,4 L4,4 L4,3 L5,3 L5,2 L6,2 L6,1 L7,1 L7,0 L8,0 Z M9,5 L8,5 L8,6 L9,6 L9,5 Z M12,5 L11,5 L11,6 L12,6 L12,5 Z M8,4 L7,4 L7,5 L8,5 L8,4 Z M11,4 L10,4 L10,5 L11,5 L11,4 Z" fill="#000000"></path>
    </g>
</svg>