<?xml version="1.0" encoding="UTF-8"?>
<svg width="16px" height="16px" viewBox="0 0 16 16" version="1.1" xmlns="http://www.w3.org/2000/svg" xmlns:xlink="http://www.w3.org/1999/xlink">
    <title>character</title>
    <g id="character" stroke="none" stroke-width="1" fill="none" fill-rule="evenodd">
        <path d="M4,10 L3,10 L3,11 L4,11 L4,13 L1,13 L1,10 L2,10 L2,9 L4,9 L4,8 L3,8 L3,3 L4,3 L4,2 L5,2 L5,1 L11,1 L11,2 L12,2 L12,3 L13,3 L13,8 L12,8 L12,9 L11,9 L11,10 L10,10 L10,11 L11,11 L11,14 L12,14 L12,15 L9,15 L9,13 L7,13 L7,15 L4,15 L4,14 L5,14 L5,11 L6,11 L6,10 L5,10 L5,9 L4,9 L4,10 Z M14,9 L14,10 L15,10 L15,13 L12,13 L12,11 L13,11 L13,10 L12,10 L12,9 L14,9 Z M9,8 L7,8 L7,9 L9,9 L9,8 Z M7,4 L5,4 L5,5 L6,5 L6,7 L7,7 L7,4 Z M11,4 L9,4 L9,7 L10,7 L10,5 L11,5 L11,4 Z" fill="#000000"></path>
    </g>
</svg>