<?xml version="1.0" encoding="UTF-8"?>
<svg width="16px" height="16px" viewBox="0 0 16 16" version="1.1" xmlns="http://www.w3.org/2000/svg" xmlns:xlink="http://www.w3.org/1999/xlink">
    <title>check</title>
    <g id="check" stroke="none" stroke-width="1" fill="none" fill-rule="evenodd">
        <polygon fill="#000000" points="3 7 3 9 4 9 4 10 5 10 5 11 6 11 6 12 7 12 7 11 8 11 8 10 9 10 9 9 10 9 10 8 11 8 11 7 12 7 12 6 13 6 13 4 11 4 11 5 10 5 10 6 9 6 9 7 8 7 8 8 7 8 7 9 6 9 6 8 5 8 5 7"></polygon>
    </g>
</svg>