<?xml version="1.0" encoding="UTF-8"?>
<svg width="16px" height="16px" viewBox="0 0 16 16" version="1.1" xmlns="http://www.w3.org/2000/svg" xmlns:xlink="http://www.w3.org/1999/xlink">
    <title>chevron-right</title>
    <g id="chevron-right" stroke="none" stroke-width="1" fill="none" fill-rule="evenodd">
        <path d="M6,11 L8,11 L8,10 L9,10 L9,9 C9.66666667,9 10,9 10,9 C10,9 10,8.33333333 10,7 L9,7 L9,6 C8.33333333,6 8,6 8,6 C8,6 8,5.66666667 8,5 L6,5 L6,7 C6.66666667,7 7,7 7,7 C7,7 7,7.66666667 7,9 C6.33333333,9 6,9 6,9 C6,9 6,9.66666667 6,11 Z" fill="#000000"></path>
    </g>
</svg>