<?xml version="1.0" encoding="UTF-8"?>
<svg width="16px" height="16px" viewBox="0 0 16 16" version="1.1" xmlns="http://www.w3.org/2000/svg" xmlns:xlink="http://www.w3.org/1999/xlink">
    <title>comment</title>
    <g id="comment" stroke="none" stroke-width="1" fill="none" fill-rule="evenodd">
        <path d="M13,2 L13,3 L14,3 L14,4 L15,4 L15,10 L14,10 L14,11 L13,11 L13,12 L8,12 L8,13 L7,13 L7,14 L6,14 L6,12 L3,12 L3,11 L2,11 L2,10 L1,10 L1,4 L2,4 L2,3 L3,3 L3,2 L13,2 Z M6,7 L4,7 L4,9 L6,9 L6,7 Z M9,7 L7,7 L7,9 L9,9 L9,7 Z M12,7 L10,7 L10,9 L12,9 L12,7 Z" fill="#000000"></path>
    </g>
</svg>