<?xml version="1.0" encoding="UTF-8"?>
<svg width="16px" height="16px" viewBox="0 0 16 16" version="1.1" xmlns="http://www.w3.org/2000/svg" xmlns:xlink="http://www.w3.org/1999/xlink">
    <title>container</title>
    <g id="container" stroke="none" stroke-width="1" fill="none" fill-rule="evenodd">
        <path d="M10,11 L10,13 L11,13 L11,11 L12,11 L12,13 L14,13 L14,11 L15,11 L15,13 L16,13 L16,16 L15,16 L15,14 L13,14 L13,16 L12,16 L12,14 L11,14 L11,16 L0,16 L0,13 L1,13 L1,11 L10,11 Z M10,4 L10,7 L11,7 L11,4 L12,4 L12,7 L14,7 L14,4 L15,4 L15,7 L16,7 L16,10 L15,10 L15,8 L13,8 L13,10 L12,10 L12,8 L11,8 L11,10 L0,10 L0,7 L1,7 L1,4 L10,4 Z M16,0 L16,3 L15,3 L15,1 L13,1 L13,3 L0,3 L0,0 L16,0 Z" fill="#000000"></path>
    </g>
</svg>