<?xml version="1.0" encoding="UTF-8"?>
<svg width="16px" height="16px" viewBox="0 0 16 16" version="1.1" xmlns="http://www.w3.org/2000/svg" xmlns:xlink="http://www.w3.org/1999/xlink">
    <title>dog</title>
    <g id="dog" stroke="none" stroke-width="1" fill="none" fill-rule="evenodd">
        <path d="M4,12 L3,12 L3,13 L2,13 L2,11 L4,11 L4,10 L3,10 L3,5 L4,5 L4,4 L5,4 L5,3 L12,3 L12,4 L13,4 L13,5 L14,5 L14,10 L13,10 L13,15 L11,15 L11,14 L10,14 L10,15 L8,15 L8,14 L7,14 L7,15 L3,15 L3,13 L4,13 L4,12 L6,12 L6,11 L4,11 L4,12 Z M7,13 L6,13 L6,14 L7,14 L7,13 Z M7,7 L6,7 L6,11 L7,11 L7,7 Z M10,10 L9,10 L9,11 L10,11 L10,10 Z M12,10 L11,10 L11,11 L12,11 L12,10 Z M13,6 L12,6 L12,7 L10,7 L10,10 L11,10 L11,9 L12,9 L12,8 L13,8 L13,6 Z M9,6 L8,6 L8,8 L9,8 L9,6 Z" fill="#000000"></path>
    </g>
</svg>