<?xml version="1.0" encoding="UTF-8"?>
<svg width="16px" height="16px" viewBox="0 0 16 16" version="1.1" xmlns="http://www.w3.org/2000/svg" xmlns:xlink="http://www.w3.org/1999/xlink">
    <title>door-2</title>
    <g id="door-2" stroke="none" stroke-width="1" fill="none" fill-rule="evenodd">
        <path d="M2,6 L3,6 L3,4 L13,4 L13,3 L3,3 L3,4 L2,4 L2,6 Z M11,10 L5,10 L5,14 L6,14 L6,11 L11,11 L11,10 Z M4,7 L2,7 L2,11 L3,11 L3,8 L4,8 L4,7 Z M12,9 L11,9 L11,10 L12,10 L12,9 Z M11,5 L5,5 L5,9 L6,9 L6,6 L11,6 L11,5 Z M13,15 L3,15 L3,13 L4,13 L4,12 L2,12 L2,15 L0,15 L0,2 L1,2 L1,1 L15,1 L15,2 L16,2 L16,15 L14,15 L14,4 L13,4 L13,15 Z" fill="#000000"></path>
    </g>
</svg>