<?xml version="1.0" encoding="UTF-8"?>
<svg width="16px" height="16px" viewBox="0 0 16 16" version="1.1" xmlns="http://www.w3.org/2000/svg" xmlns:xlink="http://www.w3.org/1999/xlink">
    <title>door</title>
    <g id="door" stroke="none" stroke-width="1" fill="none" fill-rule="evenodd">
        <path d="M12,1 L12,2 L13,2 L13,3 L14,3 L14,15 L12,15 L12,4 L11,4 L11,3 L5,3 L5,4 L4,4 L4,6 L5,6 L5,5 L6,5 L6,4 L10,4 L10,5 L11,5 L11,15 L5,15 L5,13 L6,13 L6,12 L4,12 L4,15 L2,15 L2,3 L3,3 L3,2 L4,2 L4,1 L12,1 Z M6,7 L4,7 L4,11 L5,11 L5,8 L6,8 L6,7 Z M10,10 L9,10 L9,11 L10,11 L10,10 Z" fill="#000000"></path>
    </g>
</svg>