<?xml version="1.0" encoding="UTF-8"?>
<svg width="16px" height="16px" viewBox="0 0 16 16" version="1.1" xmlns="http://www.w3.org/2000/svg" xmlns:xlink="http://www.w3.org/1999/xlink">
    <title>drops</title>
    <g id="drops" stroke="none" stroke-width="1" fill="none" fill-rule="evenodd">
        <path d="M6,6 L6,8 L7,8 L7,10 L8,10 L8,13 L7,13 L7,14 L4,14 L4,13 L3,13 L3,10 L4,10 L4,8 L5,8 L5,6 L6,6 Z M5,11 L4,11 L4,13 L6,13 L6,12 L5,12 L5,11 Z M11,1 L11,3 L12,3 L12,5 L13,5 L13,8 L12,8 L12,9 L9,9 L9,8 L8,8 L8,5 L9,5 L9,3 L10,3 L10,1 L11,1 Z M10,6 L9,6 L9,8 L11,8 L11,7 L10,7 L10,6 Z" fill="#000000"></path>
    </g>
</svg>