<?xml version="1.0" encoding="UTF-8"?>
<svg width="16px" height="16px" viewBox="0 0 16 16" version="1.1" xmlns="http://www.w3.org/2000/svg" xmlns:xlink="http://www.w3.org/1999/xlink">
    <title>egg</title>
    <g id="egg" stroke="none" stroke-width="1" fill="none" fill-rule="evenodd">
        <path d="M10,3 L10,4 L11,4 L11,5 L12,5 L12,7 L13,7 L13,12 L12,12 L12,13 L11,13 L11,14 L5,14 L5,13 L4,13 L4,12 L3,12 L3,7 L4,7 L4,5 L5,5 L5,4 L6,4 L6,3 L10,3 Z M8,12 L7,12 L7,13 L8,13 L8,12 Z M11,10 L9,10 L9,12 L11,12 L11,10 Z M7,8 L5,8 L5,10 L7,10 L7,8 Z M10,6 L8,6 L8,8 L10,8 L10,6 Z M7,5 L6,5 L6,6 L7,6 L7,5 Z" fill="#000000"></path>
    </g>
</svg>