<?xml version="1.0" encoding="UTF-8"?>
<svg width="16px" height="16px" viewBox="0 0 16 16" version="1.1" xmlns="http://www.w3.org/2000/svg" xmlns:xlink="http://www.w3.org/1999/xlink">
    <title>eye</title>
    <g id="eye" stroke="none" stroke-width="1" fill="none" fill-rule="evenodd">
        <path d="M11,3 L11,4 L12,4 L12,5 L13,5 L13,11 L12,11 L12,12 L11,12 L11,13 L5,13 L5,12 L4,12 L4,11 L3,11 L3,5 L4,5 L4,4 L5,4 L5,3 L11,3 Z M10,5 L6,5 L6,6 L5,6 L5,10 L6,10 L6,11 L10,11 L10,10 L11,10 L11,6 L10,6 L10,5 Z M10,9 L10,10 L9,10 L9,9 L10,9 Z M8,6 L8,8 L6,8 L6,6 L8,6 Z" fill="#000000"></path>
    </g>
</svg>