<?xml version="1.0" encoding="UTF-8"?>
<svg width="16px" height="16px" viewBox="0 0 16 16" version="1.1" xmlns="http://www.w3.org/2000/svg" xmlns:xlink="http://www.w3.org/1999/xlink">
    <title>face-id</title>
    <g id="face-id" stroke="none" stroke-width="1" fill="none" fill-rule="evenodd">
        <path d="M4,14 L4,15 L2,15 L2,14 L4,14 Z M14,14 L14,15 L12,15 L12,14 L14,14 Z M2,12 L2,14 L1,14 L1,12 L2,12 Z M15,12 L15,14 L14,14 L14,12 L15,12 Z M11,3 L11,4 L12,4 L12,5 L13,5 L13,11 L12,11 L12,12 L11,12 L11,13 L5,13 L5,12 L4,12 L4,11 L3,11 L3,5 L4,5 L4,4 L5,4 L5,3 L11,3 Z M10,10 L6,10 L6,11 L10,11 L10,10 Z M6,9 L5,9 L5,10 L6,10 L6,9 Z M11,9 L10,9 L10,10 L11,10 L11,9 Z M7,6 L6,6 L6,8 L7,8 L7,6 Z M10,6 L9,6 L9,8 L10,8 L10,6 Z M2,2 L2,4 L1,4 L1,2 L2,2 Z M15,2 L15,4 L14,4 L14,2 L15,2 Z M4,1 L4,2 L2,2 L2,1 L4,1 Z M14,1 L14,2 L12,2 L12,1 L14,1 Z" fill="#000000"></path>
    </g>
</svg>