<?xml version="1.0" encoding="UTF-8"?>
<svg width="16px" height="16px" viewBox="0 0 16 16" version="1.1" xmlns="http://www.w3.org/2000/svg" xmlns:xlink="http://www.w3.org/1999/xlink">
    <title>flag</title>
    <g id="flag" stroke="none" stroke-width="1" fill="none" fill-rule="evenodd">
        <path d="M6,9 L6,14 L7,14 L7,15 L3,15 L3,14 L4,14 L4,9 L6,9 Z M14,5 L14,6 L13,6 L13,7 L12,7 L12,8 L13,8 L13,9 L14,9 L14,10 L9,10 L9,9 L11,9 L11,5 L14,5 Z M10,3 L10,8 L4,8 L4,3 L10,3 Z M6,1 L6,2 L4,2 L4,1 L6,1 Z" fill="#000000"></path>
    </g>
</svg>