<?xml version="1.0" encoding="UTF-8"?>
<svg width="16px" height="16px" viewBox="0 0 16 16" version="1.1" xmlns="http://www.w3.org/2000/svg" xmlns:xlink="http://www.w3.org/1999/xlink">
    <title>floppy-disk</title>
    <g id="floppy-disk" stroke="none" stroke-width="1" fill="none" fill-rule="evenodd">
        <path d="M4,2 L4,6 L12,6 L12,2 L14,2 L14,14 L12,14 L12,8 L4,8 L4,14 L2,14 L2,2 L4,2 Z M11,9 L11,14 L5,14 L5,9 L11,9 Z M9,12 L6,12 L6,13 L9,13 L9,12 Z M10,10 L6,10 L6,11 L10,11 L10,10 Z M11,2 L11,5 L7,5 L7,2 L11,2 Z M10,3 L9,3 L9,4 L10,4 L10,3 Z" fill="#000000"></path>
    </g>
</svg>