<?xml version="1.0" encoding="UTF-8"?>
<svg width="16px" height="16px" viewBox="0 0 16 16" version="1.1" xmlns="http://www.w3.org/2000/svg" xmlns:xlink="http://www.w3.org/1999/xlink">
    <title>flower</title>
    <g id="flower" stroke="none" stroke-width="1" fill="none" fill-rule="evenodd">
        <path d="M8,12 L8,13 L9,13 L9,16 L7,16 L7,12 L8,12 Z M4,10 L4,12 L3,12 L3,13 L4,13 L4,12 L6,12 L6,14 L5,14 L5,15 L2,15 L2,14 L1,14 L1,11 L2,11 L2,10 L4,10 Z M14,10 L14,11 L15,11 L15,14 L14,14 L14,15 L11,15 L11,14 L10,14 L10,12 L12,12 L12,10 L14,10 Z M13,12 L12,12 L12,13 L13,13 L13,12 Z M10,6 L10,7 L11,7 L11,10 L10,10 L10,11 L6,11 L6,10 L5,10 L5,7 L6,7 L6,6 L10,6 Z M4,3 L4,4 L5,4 L5,7 L4,7 L4,8 L1,8 L1,7 L0,7 L0,4 L1,4 L1,3 L4,3 Z M15,3 L15,4 L16,4 L16,7 L15,7 L15,8 L12,8 L12,7 L11,7 L11,4 L12,4 L12,3 L15,3 Z M10,1 L10,2 L11,2 L11,4 L10,4 L10,5 L6,5 L6,4 L5,4 L5,2 L6,2 L6,1 L10,1 Z" fill="#000000"></path>
    </g>
</svg>