<?xml version="1.0" encoding="UTF-8"?>
<svg width="16px" height="16px" viewBox="0 0 16 16" version="1.1" xmlns="http://www.w3.org/2000/svg" xmlns:xlink="http://www.w3.org/1999/xlink">
    <title>gamepad</title>
    <g id="gamepad" stroke="none" stroke-width="1" fill="none" fill-rule="evenodd">
        <path d="M8,2 L8,5 L10,5 L10,6 L13,6 L13,7 L14,7 L14,8 L15,8 L15,11 L14,11 L14,12 L13,12 L13,13 L10,13 L10,12 L9,12 L9,11 L7,11 L7,12 L6,12 L6,13 L3,13 L3,12 L2,12 L2,11 L1,11 L1,8 L2,8 L2,7 L3,7 L3,6 L6,6 L6,5 L7,5 L7,2 L8,2 Z M5,8 L4,8 L4,9 L3,9 L3,10 L4,10 L4,11 L5,11 L5,10 L6,10 L6,9 L5,9 L5,8 Z M12,10 L11,10 L11,11 L12,11 L12,10 Z M11,9 L10,9 L10,10 L11,10 L11,9 Z M13,9 L12,9 L12,10 L13,10 L13,9 Z M12,8 L11,8 L11,9 L12,9 L12,8 Z M13,3 L13,4 L11,4 L11,3 L13,3 Z M14,1 L14,3 L13,3 L13,1 L14,1 Z M11,2 L11,3 L10,3 L10,2 L11,2 Z M10,1 L10,2 L8,2 L8,1 L10,1 Z" fill="#000000"></path>
    </g>
</svg>