<?xml version="1.0" encoding="UTF-8"?>
<svg width="16px" height="16px" viewBox="0 0 16 16" version="1.1" xmlns="http://www.w3.org/2000/svg" xmlns:xlink="http://www.w3.org/1999/xlink">
    <title>glasses</title>
    <g id="glasses" stroke="none" stroke-width="1" fill="none" fill-rule="evenodd">
        <path d="M6,11 L6,12 L3,12 L3,11 L6,11 Z M13,11 L13,12 L10,12 L10,11 L13,11 Z M3,4 L3,7 L6,7 L6,8 L3,8 L3,11 L2,11 L2,4 L3,4 Z M14,4 L14,11 L13,11 L13,8 L10,8 L10,11 L9,11 L9,9 L7,9 L7,11 L6,11 L6,8 L10,8 L10,7 L13,7 L13,4 L14,4 Z M6,4 L6,5 L5,5 L5,4 L6,4 Z M11,4 L11,5 L10,5 L10,4 L11,4 Z M5,3 L5,4 L3,4 L3,3 L5,3 Z M13,3 L13,4 L11,4 L11,3 L13,3 Z" fill="#000000"></path>
    </g>
</svg>