<?xml version="1.0" encoding="UTF-8"?>
<svg width="16px" height="16px" viewBox="0 0 16 16" version="1.1" xmlns="http://www.w3.org/2000/svg" xmlns:xlink="http://www.w3.org/1999/xlink">
    <title>gun</title>
    <g id="gun" stroke="none" stroke-width="1" fill="none" fill-rule="evenodd">
        <path d="M5.5,11 L5.5,13 L2.5,13 L2.5,12 L4.5,12 L4.5,11 L5.5,11 Z M2.5,10 L2.5,12 L2.5,12 L1.5,12 L1.5,10 L2.5,10 L2.5,10 Z M13.5,3 L13.5,4 L14.5,4 L14.5,7 L7.5,7 L7.5,8 L12.5,8 L12.5,9 L8.5,9 L8.5,10 L7.5,10 L7.5,9 L6.5,9 L6.5,10 L7.5,10 L7.5,11 L5.5,11 L5.5,8 L3.5,8 L3.5,10 L2.5,10 L2.5,6 L4.5,6 L4.5,5 L5.5,5 L5.5,4 L11.5,4 L11.5,3 L13.5,3 Z M4.5,4 L4.5,5 L3.5,5 L3.5,4 L4.5,4 Z" fill="#000000"></path>
    </g>
</svg>