<?xml version="1.0" encoding="UTF-8"?>
<svg width="16px" height="16px" viewBox="0 0 16 16" version="1.1" xmlns="http://www.w3.org/2000/svg" xmlns:xlink="http://www.w3.org/1999/xlink">
    <title>heart</title>
    <g id="heart" stroke="none" stroke-width="1" fill="none" fill-rule="evenodd">
        <polygon fill="#000000" points="9 14 7 14 7 13 6 13 6 12 5 12 5 11 4 11 4 10 3 10 3 9 2 9 2 5 3 5 3 4 4 4 4 3 7 3 7 4 9 4 9 3 12 3 12 4 13 4 13 5 14 5 14 9 13 9 13 10 12 10 12 11 11 11 11 12 10 12 10 13 9 13"></polygon>
    </g>
</svg>