<?xml version="1.0" encoding="UTF-8"?>
<svg width="16px" height="16px" viewBox="0 0 16 16" version="1.1" xmlns="http://www.w3.org/2000/svg" xmlns:xlink="http://www.w3.org/1999/xlink">
    <title>helmet-2</title>
    <g id="helmet-2" stroke="none" stroke-width="1" fill="none" fill-rule="evenodd">
        <path d="M11,3 L11,6 L12,6 L12,7 L14,7 L14,12 L13,12 L13,13 L10,13 L10,14 L13,14 L13,15 L9,15 L9,11 L11,11 L11,10 L12,10 L12,8 L4,8 L4,10 L5,10 L5,11 L7,11 L7,15 L3,15 L3,14 L2,14 L2,13 L3,13 L3,12 L2,12 L2,7 L4,7 L4,6 L5,6 L5,3 L11,3 Z M14,13 L14,14 L13,14 L13,13 L14,13 Z M6,13 L3,13 L3,14 L6,14 L6,13 Z M10,6 L6,6 L6,7 L10,7 L10,6 Z M3,0 L3,3 L4,3 L4,6 L1,6 L1,6 L1,5 L1,5 L0,5 L0,2 L1,2 L1,2 L1,1 L1,1 L2,1 L2,0 L3,0 Z M14,0 L14,1 L15,1 L15,1 L15,2 L15,2 L16,2 L16,5 L15,5 L15,6 L12,6 L12,3 L13,3 L13,3 L13,0 L13,0 L14,0 Z M9,4 L7,4 L7,5 L9,5 L9,4 Z" fill="#000000"></path>
    </g>
</svg>