<?xml version="1.0" encoding="UTF-8"?>
<svg width="16px" height="16px" viewBox="0 0 16 16" version="1.1" xmlns="http://www.w3.org/2000/svg" xmlns:xlink="http://www.w3.org/1999/xlink">
    <title>helmet</title>
    <g id="helmet" stroke="none" stroke-width="1" fill="none" fill-rule="evenodd">
        <path d="M6,2 L6,5 L7,5 L7,6 L9,6 L9,5 L10,5 L10,2 L12,2 L12,3 L13,3 L13,4 L14,4 L14,11 L12,11 L12,12 L10,12 L10,13 L12,13 L12,14 L9,14 L9,10 L11,10 L11,9 L12,9 L12,7 L4,7 L4,9 L5,9 L5,10 L7,10 L7,14 L4,14 L4,13 L6,13 L6,12 L4,12 L4,13 L2,13 L2,12 L4,12 L4,11 L2,11 L2,4 L3,4 L3,3 L4,3 L4,2 L6,2 Z M14,12 L14,13 L12,13 L12,12 L14,12 Z M5,4 L4,4 L4,5 L5,5 L5,4 Z M12,4 L11,4 L11,5 L12,5 L12,4 Z M9,1 L9,5 L7,5 L7,1 L9,1 Z" fill="#000000"></path>
    </g>
</svg>