<?xml version="1.0" encoding="UTF-8"?>
<svg width="16px" height="16px" viewBox="0 0 16 16" version="1.1" xmlns="http://www.w3.org/2000/svg" xmlns:xlink="http://www.w3.org/1999/xlink">
    <title>leaf</title>
    <g id="leaf" stroke="none" stroke-width="1" fill="none" fill-rule="evenodd">
        <path d="M2,14 L2,15 L1,15 L1,14 L2,14 Z M3,13 L3,14 L2,14 L2,13 L3,13 Z M14,2 L14,8 L13,8 L13,10 L12,10 L12,11 L11,11 L11,12 L9,12 L9,13 L4,13 L4,12 L3,12 L3,7 L4,7 L4,5 L5,5 L5,4 L6,4 L6,3 L8,3 L8,2 L14,2 Z M5,11 L4,11 L4,12 L5,12 L5,11 Z M6,7 L5,7 L5,11 L9,11 L9,10 L7,10 L7,9 L6,9 L6,7 Z M8,5 L7,5 L7,9 L11,9 L11,8 L9,8 L9,7 L8,7 L8,5 Z M10,3 L9,3 L9,7 L13,7 L13,6 L11,6 L11,5 L10,5 L10,3 Z M12,4 L11,4 L11,5 L12,5 L12,4 Z M13,3 L12,3 L12,4 L13,4 L13,3 Z" fill="#000000"></path>
    </g>
</svg>