<?xml version="1.0" encoding="UTF-8"?>
<svg width="16px" height="16px" viewBox="0 0 16 16" version="1.1" xmlns="http://www.w3.org/2000/svg" xmlns:xlink="http://www.w3.org/1999/xlink">
    <title>lock</title>
    <g id="lock" stroke="none" stroke-width="1" fill="none" fill-rule="evenodd">
        <path d="M13,7 L13,13 L12,13 L12,14 L4,14 L4,13 L3,13 L3,7 L13,7 Z M10,8 L6,8 L6,11 L7,11 L7,13 L9,13 L9,11 L10,11 L10,8 Z M6,3 L6,6 L5,6 L5,3 L6,3 Z M11,3 L11,6 L10,6 L10,3 L11,3 Z M10,2 L10,3 L6,3 L6,2 L10,2 Z" fill="#000000"></path>
    </g>
</svg>