<?xml version="1.0" encoding="UTF-8"?>
<svg width="16px" height="16px" viewBox="0 0 16 16" version="1.1" xmlns="http://www.w3.org/2000/svg" xmlns:xlink="http://www.w3.org/1999/xlink">
    <title>lock-2</title>
    <g id="lock-2" stroke="none" stroke-width="1" fill="none" fill-rule="evenodd">
        <path d="M13,7 L13,13 L12,13 L12,14 L4,14 L4,13 L3,13 L3,7 L13,7 Z M5,12 L4,12 L4,13 L5,13 L5,12 Z M12,12 L11,12 L11,13 L12,13 L12,12 Z M10,8 L6,8 L6,11 L7,11 L7,13 L9,13 L9,11 L10,11 L10,8 Z M5,8 L4,8 L4,9 L5,9 L5,8 Z M12,8 L11,8 L11,9 L12,9 L12,8 Z M11,2 L11,3 L12,3 L12,6 L10,6 L10,4 L6,4 L6,6 L4,6 L4,3 L5,3 L5,2 L11,2 Z" fill="#000000"></path>
    </g>
</svg>