<?xml version="1.0" encoding="UTF-8"?>
<svg width="16px" height="16px" viewBox="0 0 16 16" version="1.1" xmlns="http://www.w3.org/2000/svg" xmlns:xlink="http://www.w3.org/1999/xlink">
    <title>notes</title>
    <g id="notes" stroke="none" stroke-width="1" fill="none" fill-rule="evenodd">
        <path d="M14,5 L14,15 L5,15 L5,14 L13,14 L13,5 L14,5 Z M5,2 L5,3 L6,3 L6,2 L7,2 L7,3 L8,3 L8,2 L9,2 L9,3 L10,3 L10,2 L11,2 L11,3 L12,3 L12,13 L3,13 L3,3 L4,3 L4,2 L5,2 Z M10,11 L4,11 L4,12 L10,12 L10,11 Z M9,9 L4,9 L4,10 L9,10 L9,9 Z M11,9 L10,9 L10,10 L11,10 L11,9 Z M6,7 L4,7 L4,8 L6,8 L6,7 Z M11,7 L7,7 L7,8 L11,8 L11,7 Z M11,5 L4,5 L4,6 L11,6 L11,5 Z" fill="#000000"></path>
    </g>
</svg>