<?xml version="1.0" encoding="UTF-8"?>
<svg width="16px" height="16px" viewBox="0 0 16 16" version="1.1" xmlns="http://www.w3.org/2000/svg" xmlns:xlink="http://www.w3.org/1999/xlink">
    <title>orc</title>
    <g id="orc" stroke="none" stroke-width="1" fill="none" fill-rule="evenodd">
        <path d="M11,9 L11,10 L10,10 L10,11 L11,11 L11,14 L12,14 L12,15 L9,15 L9,13 L7,13 L7,15 L4,15 L4,14 L5,14 L5,11 L6,11 L6,10 L5,10 L5,9 L11,9 Z M4,9 L4,10 L5,10 L5,11 L3,11 L3,12 L4,12 L4,14 L1,14 L1,11 L2,11 L2,10 L3,10 L3,9 L4,9 Z M13,9 L13,10 L14,10 L14,11 L15,11 L15,14 L12,14 L12,12 L13,12 L13,11 L11,11 L11,10 L12,10 L12,9 L13,9 Z M9,10 L7,10 L7,11 L9,11 L9,10 Z M11,1 L11,2 L12,2 L12,3 L13,3 L13,4 L12,4 L12,5 L13,5 L13,4 L15,4 L15,5 L14,5 L14,6 L13,6 L13,8 L12,8 L12,9 L11,9 L11,7 L10,7 L10,8 L9,8 L9,7 L7,7 L7,8 L6,8 L6,7 L5,7 L5,9 L4,9 L4,8 L3,8 L3,6 L2,6 L2,5 L1,5 L1,4 L3,4 L3,3 L4,3 L4,2 L5,2 L5,1 L11,1 Z M7,4 L5,4 L5,5 L6,5 L6,6 L7,6 L7,4 Z M11,4 L9,4 L9,6 L10,6 L10,5 L11,5 L11,4 Z M4,4 L3,4 L3,5 L4,5 L4,4 Z" fill="#000000"></path>
    </g>
</svg>