<?xml version="1.0" encoding="UTF-8"?>
<svg width="16px" height="16px" viewBox="0 0 16 16" version="1.1" xmlns="http://www.w3.org/2000/svg" xmlns:xlink="http://www.w3.org/1999/xlink">
    <title>palmtree</title>
    <g id="palmtree" stroke="none" stroke-width="1" fill="none" fill-rule="evenodd">
        <path d="M11,9 L11,14 L12,14 L12,15 L6,15 L6,14 L10,14 L10,13 L7,13 L7,12 L10,12 L10,11 L8,11 L8,10 L10,10 L10,9 L11,9 Z M8,4 L8,8 L7,8 L7,9 L6,9 L6,10 L5,10 L5,5 L6,5 L6,4 L8,4 Z M13,1 L13,2 L14,2 L14,3 L15,3 L15,6 L14,6 L14,5 L13,5 L13,4 L12,4 L12,5 L13,5 L13,8 L12,8 L12,7 L10,7 L10,9 L8,9 L8,8 L9,8 L9,7 L10,7 L10,6 L9,6 L9,4 L12,4 L12,3 L8,3 L8,2 L9,2 L9,1 L13,1 Z M6,3 L6,4 L5,4 L5,5 L4,5 L4,6 L3,6 L3,7 L2,7 L2,4 L3,4 L3,3 L6,3 Z M7,0 L7,1 L8,1 L8,2 L3,2 L3,1 L4,1 L4,0 L7,0 Z" fill="#000000"></path>
    </g>
</svg>