<?xml version="1.0" encoding="UTF-8"?>
<svg width="16px" height="16px" viewBox="0 0 16 16" version="1.1" xmlns="http://www.w3.org/2000/svg" xmlns:xlink="http://www.w3.org/1999/xlink">
    <title>photo</title>
    <g id="photo" stroke="none" stroke-width="1" fill="none" fill-rule="evenodd">
        <path d="M3,4 L3,11 L4,11 L4,10 L5,10 L5,9 L6,9 L6,8 L7,8 L7,9 L8,9 L8,8 L9,8 L9,7 L10,7 L10,6 L11,6 L11,7 L12,7 L12,8 L13,8 L13,4 L14,4 L14,12 L13,12 L13,13 L3,13 L3,12 L2,12 L2,4 L3,4 Z M13,3 L13,4 L3,4 L3,3 L13,3 Z" fill="#000000"></path>
    </g>
</svg>