<?xml version="1.0" encoding="UTF-8"?>
<svg width="16px" height="16px" viewBox="0 0 16 16" version="1.1" xmlns="http://www.w3.org/2000/svg" xmlns:xlink="http://www.w3.org/1999/xlink">
    <title>redo</title>
    <g id="redo" stroke="none" stroke-width="1" fill="none" fill-rule="evenodd">
        <polygon fill="#000000" points="11 3 13 3 13 8 8 8 8 6 10 6 10 5 6 5 6 6 5 6 5 10 6 10 6 11 10 11 10 10 11 10 11 9 13 9 13 11 12 11 12 12 11 12 11 13 5 13 5 12 4 12 4 11 3 11 3 5 4 5 4 4 5 4 5 3 10 3 10 4 11 4"></polygon>
    </g>
</svg>