<?xml version="1.0" encoding="UTF-8"?>
<svg width="16px" height="16px" viewBox="0 0 16 16" version="1.1" xmlns="http://www.w3.org/2000/svg" xmlns:xlink="http://www.w3.org/1999/xlink">
    <title>ring</title>
    <g id="ring" stroke="none" stroke-width="1" fill="none" fill-rule="evenodd">
        <path d="M7,4 L7,5 L9,5 L9,4 L11,4 L11,5 L12,5 L12,6 L13,6 L13,12 L12,12 L12,13 L11,13 L11,14 L5,14 L5,13 L4,13 L4,12 L3,12 L3,6 L4,6 L4,5 L5,5 L5,4 L7,4 Z M11,6 L6,6 L6,7 L5,7 L5,11 L6,11 L6,12 L10,12 L10,11 L11,11 L11,8 L10,8 L10,7 L11,7 L11,6 Z M12,7 L11,7 L11,8 L12,8 L12,7 Z M9,2 L9,4 L7,4 L7,2 L9,2 Z" fill="#000000"></path>
    </g>
</svg>