<?xml version="1.0" encoding="UTF-8"?>
<svg width="16px" height="16px" viewBox="0 0 16 16" version="1.1" xmlns="http://www.w3.org/2000/svg" xmlns:xlink="http://www.w3.org/1999/xlink">
    <title>robot</title>
    <g id="robot" stroke="none" stroke-width="1" fill="none" fill-rule="evenodd">
        <path d="M11,11 L11,14 L10,14 L10,15 L11,15 L11,16 L9,16 L9,14 L7,14 L7,16 L5,16 L5,15 L6,15 L6,14 L5,14 L5,11 L11,11 Z M4,14 L4,15 L2,15 L2,14 L4,14 Z M14,14 L14,15 L12,15 L12,14 L14,14 Z M3,11 L3,12 L4,12 L4,13 L2,13 L2,14 L1,14 L1,12 L2,12 L2,11 L3,11 Z M14,11 L14,12 L15,12 L15,14 L14,14 L14,13 L12,13 L12,12 L13,12 L13,11 L14,11 Z M4,10 L4,11 L3,11 L3,10 L4,10 Z M13,10 L13,11 L12,11 L12,10 L13,10 Z M12,1 L12,2 L13,2 L13,9 L12,9 L12,10 L4,10 L4,9 L3,9 L3,2 L4,2 L4,1 L12,1 Z M11,7 L5,7 L5,9 L11,9 L11,7 Z M2,1 L2,7 L1,7 L1,1 L2,1 Z M15,1 L15,7 L14,7 L14,1 L15,1 Z M7,4 L5,4 L5,6 L7,6 L7,4 Z M11,4 L9,4 L9,6 L11,6 L11,4 Z" fill="#000000"></path>
    </g>
</svg>