<?xml version="1.0" encoding="UTF-8"?>
<svg width="16px" height="16px" viewBox="0 0 16 16" version="1.1" xmlns="http://www.w3.org/2000/svg" xmlns:xlink="http://www.w3.org/1999/xlink">
    <title>screw</title>
    <g id="screw" stroke="none" stroke-width="1" fill="none" fill-rule="evenodd">
        <path d="M8,13 L8,14 L7,14 L7,13 L8,13 Z M9,12 L9,13 L8,13 L8,12 L9,12 Z M8,11 L8,12 L6,12 L6,11 L8,11 Z M10,10 L10,11 L8,11 L8,10 L10,10 Z M8,9 L8,10 L6,10 L6,9 L8,9 Z M10,8 L10,9 L8,9 L8,8 L10,8 Z M8,7 L8,8 L6,8 L6,7 L8,7 Z M10,6 L10,7 L8,7 L8,6 L10,6 Z M7,2 L7,4 L9,4 L9,2 L11,2 L11,3 L12,3 L12,5 L4,5 L4,3 L5,3 L5,2 L7,2 Z" fill="#000000"></path>
    </g>
</svg>