<?xml version="1.0" encoding="UTF-8"?>
<svg width="16px" height="16px" viewBox="0 0 16 16" version="1.1" xmlns="http://www.w3.org/2000/svg" xmlns:xlink="http://www.w3.org/1999/xlink">
    <title>search</title>
    <g id="search" stroke="none" stroke-width="1" fill="none" fill-rule="evenodd">
        <path d="M11,9 L11,10 L12,10 L12,11 L13,11 L13,12 L14,12 L14,14 L12,14 L12,13 L11,13 L11,12 L10,12 L10,11 L9,11 L9,12 L5,12 L5,11 L9,11 L9,10 L10,10 L10,9 L11,9 Z M5,10 L5,11 L4,11 L4,10 L5,10 Z M4,9 L4,10 L3,10 L3,9 L4,9 Z M12,5 L12,9 L11,9 L11,5 L12,5 Z M3,5 L3,9 L2,9 L2,5 L3,5 Z M7,4 L7,6 L6,6 L6,7 L4,7 L4,5 L5,5 L5,4 L7,4 Z M11,4 L11,5 L10,5 L10,4 L11,4 Z M4,4 L4,5 L3,5 L3,4 L4,4 Z M5,3 L5,4 L4,4 L4,3 L5,3 Z M10,3 L10,4 L9,4 L9,3 L10,3 Z M9,2 L9,3 L5,3 L5,2 L9,2 Z" fill="#000000"></path>
    </g>
</svg>