<?xml version="1.0" encoding="UTF-8"?>
<svg width="16px" height="16px" viewBox="0 0 16 16" version="1.1" xmlns="http://www.w3.org/2000/svg" xmlns:xlink="http://www.w3.org/1999/xlink">
    <title>shield-2</title>
    <g id="shield-2" stroke="none" stroke-width="1" fill="none" fill-rule="evenodd">
        <path d="M13,2 L13,3 L14,3 L14,4 L15,4 L15,12 L14,12 L14,13 L13,13 L13,14 L5,14 L5,13 L4,13 L4,14 L3,14 L3,13 L4,13 L4,12 L3,12 L3,13 L2,13 L2,12 L3,12 L3,4 L4,4 L4,3 L5,3 L5,2 L13,2 Z M12,3 L6,3 L6,4 L5,4 L5,5 L4,5 L4,11 L5,11 L5,12 L6,12 L6,13 L12,13 L12,12 L13,12 L13,11 L14,11 L14,5 L13,5 L13,4 L12,4 L12,3 Z M2,4 L2,12 L1,12 L1,4 L2,4 Z M8,10 L8,12 L8,12 L7,12 L7,10 L8,10 L8,10 Z M10,10 L10,12 L10,12 L9,12 L9,10 L10,10 L10,10 Z M6,5 L6,11 L5,11 L5,5 L6,5 Z M12,6 L12,11 L11,11 L11,6 L12,6 Z M10,7 L10,9 L8,9 L8,7 L10,7 Z M10,5 L10,6 L9,6 L9,5 L10,5 Z M8,5 L8,6 L7,6 L7,5 L8,5 Z M3,3 L3,4 L2,4 L2,3 L3,3 Z M4,2 L4,3 L3,3 L3,2 L4,2 Z" fill="#000000"></path>
    </g>
</svg>