<?xml version="1.0" encoding="UTF-8"?>
<svg width="16px" height="16px" viewBox="0 0 16 16" version="1.1" xmlns="http://www.w3.org/2000/svg" xmlns:xlink="http://www.w3.org/1999/xlink">
    <title>skeleton</title>
    <g id="skeleton" stroke="none" stroke-width="1" fill="none" fill-rule="evenodd">
        <path d="M7,13 L7,16 L5,16 L5,15 L6,15 L6,14 L5,14 L5,13 L7,13 Z M11,13 L11,14 L10,14 L10,15 L11,15 L11,16 L9,16 L9,13 L11,13 Z M3,9 L3,11 L4,11 L4,13 L2,13 L2,9 L3,9 Z M14,9 L14,13 L12,13 L12,11 L13,11 L13,9 L14,9 Z M9,12 L9,13 L7,13 L7,12 L9,12 Z M11,11 L11,12 L9,12 L9,11 L11,11 Z M7,11 L7,12 L5,12 L5,11 L7,11 Z M9,10 L9,11 L7,11 L7,10 L9,10 Z M7,9 L7,10 L4,10 L4,9 L7,9 Z M12,9 L12,10 L9,10 L9,9 L12,9 Z M4,8 L4,9 L3,9 L3,8 L4,8 Z M13,8 L13,9 L12,9 L12,8 L13,8 Z M11,0 L11,1 L12,1 L12,2 L13,2 L13,6 L11,6 L11,8 L10,8 L10,7 L9,7 L9,8 L7,8 L7,7 L6,7 L6,8 L5,8 L5,6 L3,6 L3,2 L4,2 L4,1 L5,1 L5,0 L11,0 Z M9,5 L7,5 L7,6 L9,6 L9,5 Z M7,2 L6,2 L6,3 L5,3 L5,5 L7,5 L7,2 Z M10,2 L9,2 L9,5 L11,5 L11,3 L10,3 L10,2 Z" fill="#000000"></path>
    </g>
</svg>