<?xml version="1.0" encoding="UTF-8"?>
<svg width="16px" height="16px" viewBox="0 0 16 16" version="1.1" xmlns="http://www.w3.org/2000/svg" xmlns:xlink="http://www.w3.org/1999/xlink">
    <title>skirt</title>
    <g id="skirt" stroke="none" stroke-width="1" fill="none" fill-rule="evenodd">
        <path d="M12,3 L12,5 L13,5 L13,8 L14,8 L14,12 L12,12 L12,10 L11,10 L11,13 L5,13 L5,10 L4,10 L4,12 L2,12 L2,8 L3,8 L3,5 L4,5 L4,3 L12,3 Z M6,8 L5,8 L5,10 L6,10 L6,8 Z M11,8 L10,8 L10,10 L11,10 L11,8 Z" fill="#000000"></path>
    </g>
</svg>