<?xml version="1.0" encoding="UTF-8"?>
<svg width="16px" height="16px" viewBox="0 0 16 16" version="1.1" xmlns="http://www.w3.org/2000/svg" xmlns:xlink="http://www.w3.org/1999/xlink">
    <title>skull</title>
    <g id="skull" stroke="none" stroke-width="1" fill="none" fill-rule="evenodd">
        <path d="M5,11 L5,12 L11,12 L11,11 L12,11 L12,13 L11,13 L11,14 L5,14 L5,13 L4,13 L4,11 L5,11 Z M12,2 L12,3 L13,3 L13,4 L14,4 L14,9 L13,9 L13,10 L10,10 L10,11 L6,11 L6,10 L3,10 L3,9 L2,9 L2,4 L3,4 L3,3 L4,3 L4,2 L12,2 Z M9,8 L7,8 L7,9 L9,9 L9,8 Z M11,5 L9,5 L9,8 L12,8 L12,6 L11,6 L11,5 Z M7,5 L5,5 L5,6 L4,6 L4,8 L7,8 L7,5 Z" fill="#000000"></path>
    </g>
</svg>