<?xml version="1.0" encoding="UTF-8"?>
<svg width="16px" height="16px" viewBox="0 0 16 16" version="1.1" xmlns="http://www.w3.org/2000/svg" xmlns:xlink="http://www.w3.org/1999/xlink">
    <title>slime</title>
    <g id="slime" stroke="none" stroke-width="1" fill="none" fill-rule="evenodd">
        <path d="M13,14 L13,15 L3,15 L3,14 L13,14 Z M14,13 L14,14 L13,14 L13,13 L14,13 Z M3,13 L3,14 L2,14 L2,13 L3,13 Z M13,12 L13,13 L12,13 L12,12 L13,12 Z M2,7 L2,13 L1,13 L1,7 L2,7 Z M15,7 L15,13 L14,13 L14,7 L15,7 Z M10,11 L10,12 L6,12 L6,11 L10,11 Z M7,8 L7,10 L6,10 L6,8 L7,8 Z M10,8 L10,10 L9,10 L9,8 L10,8 Z M4,8 L4,9 L3,9 L3,8 L4,8 Z M3,5 L3,7 L2,7 L2,5 L3,5 Z M14,5 L14,7 L13,7 L13,5 L14,5 Z M6,5 L6,7 L4,7 L4,5 L6,5 Z M4,4 L4,5 L3,5 L3,4 L4,4 Z M13,4 L13,5 L12,5 L12,4 L13,4 Z M6,3 L6,4 L4,4 L4,3 L6,3 Z M12,3 L12,4 L10,4 L10,3 L12,3 Z M10,2 L10,3 L6,3 L6,2 L10,2 Z" fill="#000000"></path>
    </g>
</svg>