<?xml version="1.0" encoding="UTF-8"?>
<svg width="16px" height="16px" viewBox="0 0 16 16" version="1.1" xmlns="http://www.w3.org/2000/svg" xmlns:xlink="http://www.w3.org/1999/xlink">
    <title>speech-heart</title>
    <g id="speech-heart" stroke="none" stroke-width="1" fill="none" fill-rule="evenodd">
        <path d="M13,2 L13,3 L14,3 L14,4 L15,4 L15,11 L14,11 L14,12 L13,12 L13,13 L8,13 L8,14 L7,14 L7,15 L6,15 L6,13 L3,13 L3,12 L2,12 L2,11 L1,11 L1,4 L2,4 L2,3 L3,3 L3,2 L13,2 Z M7,4 L5,4 L5,5 L4,5 L4,8 L5,8 L5,9 L6,9 L6,10 L7,10 L7,11 L9,11 L9,10 L10,10 L10,9 L11,9 L11,8 L12,8 L12,5 L11,5 L11,4 L9,4 L9,5 L7,5 L7,4 Z" fill="#000000"></path>
    </g>
</svg>