<?xml version="1.0" encoding="UTF-8"?>
<svg width="16px" height="16px" viewBox="0 0 16 16" version="1.1" xmlns="http://www.w3.org/2000/svg" xmlns:xlink="http://www.w3.org/1999/xlink">
    <title>speech-sleep</title>
    <g id="speech-sleep" stroke="none" stroke-width="1" fill="none" fill-rule="evenodd">
        <path d="M13,2 L13,3 L14,3 L14,4 L15,4 L15,11 L14,11 L14,12 L13,12 L13,13 L8,13 L8,14 L7,14 L7,15 L6,15 L6,13 L3,13 L3,12 L2,12 L2,11 L1,11 L1,4 L2,4 L2,3 L3,3 L3,2 L13,2 Z M13,6 L9,6 L9,7 L11,7 L11,8 L10,8 L10,9 L9,9 L9,11 L13,11 L13,10 L11,10 L11,9 L12,9 L12,8 L13,8 L13,6 Z M8,4 L4,4 L4,5 L6,5 L6,6 L5,6 L5,7 L4,7 L4,9 L8,9 L8,8 L6,8 L6,7 L7,7 L7,6 L8,6 L8,4 Z" fill="#000000"></path>
    </g>
</svg>