<?xml version="1.0" encoding="UTF-8"?>
<svg width="16px" height="16px" viewBox="0 0 16 16" version="1.1" xmlns="http://www.w3.org/2000/svg" xmlns:xlink="http://www.w3.org/1999/xlink">
    <title>sword-3</title>
    <g id="sword-3" stroke="none" stroke-width="1" fill="none" fill-rule="evenodd">
        <path d="M3,11 L3,12 L4,12 L4,13 L5,13 L5,13 L5,14 L5,14 L4,14 L4,15 L2,15 L2,14 L2,14 L1,14 L1,14 L1,12 L2,12 L2,11 L3,11 Z M9,11 L9,12 L9,12 L10,12 L10,15 L8,15 L8,13 L7,13 L7,13 L7,12 L7,12 L8,12 L8,11 L9,11 L9,11 Z M7,11 L7,12 L7,12 L5,12 L5,12 L5,11 L7,11 Z M5,9 L5,11 L4,11 L4,9 L5,9 Z M8,11 L7,11 L7,9 L8,9 L8,8 L9,8 L9,7 L10,7 L10,10 L9,10 L9,9 L8,9 L8,9 L8,11 L8,11 Z M4,6 L4,7 L5,7 L5,8 L4,8 L4,8 L4,9 L4,9 L3,9 L3,8 L1,8 L1,6 L4,6 Z M7,8 L7,9 L7,9 L5,9 L5,8 L7,8 L7,8 Z M15,1 L15,5 L14,5 L14,6 L13,6 L13,3 L12,3 L12,4 L11,4 L11,5 L10,5 L10,6 L9,6 L9,7 L8,7 L8,8 L7,8 L7,7 L6,7 L6,6 L7,6 L7,5 L8,5 L8,4 L9,4 L9,3 L10,3 L10,2 L11,2 L11,1 L15,1 Z M12,5 L12,8 L11,8 L11,5 L12,5 Z M14,2 L13,2 L13,3 L14,3 L14,2 Z" fill="#000000"></path>
    </g>
</svg>