<?xml version="1.0" encoding="UTF-8"?>
<svg width="16px" height="16px" viewBox="0 0 16 16" version="1.1" xmlns="http://www.w3.org/2000/svg" xmlns:xlink="http://www.w3.org/1999/xlink">
    <title>sword-2</title>
    <g id="sword-2" stroke="none" stroke-width="1" fill="none" fill-rule="evenodd">
        <path d="M3,7 L3,8 L4,8 L4,8 L4,9 L4,9 L5,9 L5,10 L6,10 L6,11 L7,11 L7,12 L8,12 L8,13 L9,13 L9,13 L9,15 L9,15 L7,15 L7,15 L7,14 L6,14 L6,13 L5,13 L5,12 L4,12 L4,11 L3,11 L3,11 L3,12 L3,12 L4,12 L4,13 L5,13 L5,14 L4,14 L4,15 L2,15 L2,14 L2,14 L1,14 L1,14 L1,12 L2,12 L2,11 L3,11 L3,10 L3,10 L2,10 L2,10 L2,9 L2,9 L1,9 L1,7 L3,7 Z M9,8 L9,10 L9,10 L10,10 L10,11 L9,11 L9,12 L8,12 L8,11 L7,11 L7,9 L8,9 L8,8 L9,8 L9,8 Z M11,9 L11,10 L11,10 L10,10 L10,9 L11,9 L11,9 Z M15,1 L15,6 L14,6 L14,7 L13,7 L13,3 L12,3 L12,4 L11,4 L11,5 L10,5 L10,6 L9,6 L9,7 L8,7 L8,8 L7,8 L7,9 L5,9 L5,8 L4,8 L4,7 L5,7 L5,6 L6,6 L6,5 L7,5 L7,4 L8,4 L8,3 L9,3 L9,2 L10,2 L10,1 L15,1 Z M12,5 L12,7 L12,7 L13,7 L13,8 L12,8 L12,8 L12,9 L12,9 L11,9 L11,5 L12,5 L12,5 Z M14,2 L13,2 L13,3 L14,3 L14,2 Z" fill="#000000"></path>
    </g>
</svg>