<?xml version="1.0" encoding="UTF-8"?>
<svg width="16px" height="16px" viewBox="0 0 16 16" version="1.1" xmlns="http://www.w3.org/2000/svg" xmlns:xlink="http://www.w3.org/1999/xlink">
    <title>t-shirt-2</title>
    <g id="t-shirt-2" stroke="none" stroke-width="1" fill="none" fill-rule="evenodd">
        <path d="M7,3 L7,4 L9,4 L9,3 L12,3 L12,4 L13,4 L13,5 L14,5 L14,6 L15,6 L15,7 L14,7 L14,8 L13,8 L13,7 L12,7 L12,13 L4,13 L4,7 L3,7 L3,8 L2,8 L2,7 L1,7 L1,6 L2,6 L2,5 L3,5 L3,4 L4,4 L4,3 L4,3 L7,3 L7,3 Z M10,5 L6,5 L6,6 L5,6 L5,10 L6,10 L6,9 L7,9 L7,10 L9,10 L9,9 L10,9 L10,10 L11,10 L11,6 L10,6 L10,5 Z M7,7 L7,8 L6,8 L6,7 L7,7 Z M10,7 L10,8 L9,8 L9,7 L10,7 Z" fill="#000000"></path>
    </g>
</svg>