<?xml version="1.0" encoding="UTF-8"?>
<svg width="16px" height="16px" viewBox="0 0 16 16" version="1.1" xmlns="http://www.w3.org/2000/svg" xmlns:xlink="http://www.w3.org/1999/xlink">
    <title>t-shirt</title>
    <g id="t-shirt" stroke="none" stroke-width="1" fill="none" fill-rule="evenodd">
        <path d="M12,13 L12,14 L4,14 L4,13 L12,13 Z M5,3 L5,4 L6,4 L6,5 L7,5 L7,6 L9,6 L9,5 L10,5 L10,4 L11,4 L11,3 L12,3 L12,4 L13,4 L13,5 L14,5 L14,6 L15,6 L15,7 L14,7 L14,8 L13,8 L13,9 L12,9 L12,12 L4,12 L4,9 L3,9 L3,8 L2,8 L2,7 L1,7 L1,6 L2,6 L2,5 L3,5 L3,4 L4,4 L4,3 L5,3 Z M5,8 L4,8 L4,9 L5,9 L5,8 Z M12,8 L11,8 L11,9 L12,9 L12,8 Z M9,4 L9,5 L7,5 L7,4 L9,4 Z M7,3 L7,4 L6,4 L6,3 L7,3 Z M10,3 L10,4 L9,4 L9,3 L10,3 Z" fill="#000000"></path>
    </g>
</svg>