<?xml version="1.0" encoding="UTF-8"?>
<svg width="16px" height="16px" viewBox="0 0 16 16" version="1.1" xmlns="http://www.w3.org/2000/svg" xmlns:xlink="http://www.w3.org/1999/xlink">
    <title>tile-brick-wall</title>
    <g id="tile-brick-wall" stroke="none" stroke-width="1" fill="none" fill-rule="evenodd">
        <path d="M11,12 L11,15 L0,15 L0,12 L11,12 Z M16,12 L16,15 L12,15 L12,12 L16,12 Z M16,8 L16,11 L7,11 L7,8 L16,8 Z M6,8 L6,11 L0,11 L0,8 L6,8 Z M13,4 L13,7 L0,7 L0,4 L13,4 Z M16,4 L16,7 L14,7 L14,4 L16,4 Z M3,0 L3,3 L0,3 L0,0 L3,0 Z M16,0 L16,3 L4,3 L4,0 L16,0 Z" fill="#000000"></path>
    </g>
</svg>