<?xml version="1.0" encoding="UTF-8"?>
<svg width="16px" height="16px" viewBox="0 0 16 16" version="1.1" xmlns="http://www.w3.org/2000/svg" xmlns:xlink="http://www.w3.org/1999/xlink">
    <title>tile-block-2</title>
    <g id="tile-block-2" stroke="none" stroke-width="1" fill="none" fill-rule="evenodd">
        <path d="M16,0 L16,1 L15,1 L15,15 L1,15 L1,16 L0,16 L0,0 L16,0 Z M14,1 L1,1 L1,14 L2,14 L2,2 L14,2 L14,1 Z M14,13 L13,13 L13,14 L14,14 L14,13 Z M4,13 L3,13 L3,14 L4,14 L4,13 Z M12,5 L5,5 L5,12 L12,12 L12,5 Z M11,10 L11,11 L7,11 L7,10 L11,10 Z M11,8 L11,9 L7,9 L7,8 L11,8 Z M14,3 L13,3 L13,4 L14,4 L14,3 Z M4,3 L3,3 L3,4 L4,4 L4,3 Z" fill="#000000"></path>
    </g>
</svg>