<?xml version="1.0" encoding="UTF-8"?>
<svg width="16px" height="16px" viewBox="0 0 16 16" version="1.1" xmlns="http://www.w3.org/2000/svg" xmlns:xlink="http://www.w3.org/1999/xlink">
    <title>tile-block</title>
    <g id="tile-block" stroke="none" stroke-width="1" fill="none" fill-rule="evenodd">
        <path d="M16,0 L16,1 L15,1 L15,2 L14,2 L14,14 L2,14 L2,15 L1,15 L1,16 L0,16 L0,0 L16,0 Z M13,2 L2,2 L2,13 L3,13 L3,3 L13,3 L13,2 Z M13,12 L12,12 L12,13 L13,13 L13,12 Z M5,12 L4,12 L4,13 L5,13 L5,12 Z M13,4 L12,4 L12,5 L13,5 L13,4 Z M5,4 L4,4 L4,5 L5,5 L5,4 Z" fill="#000000"></path>
    </g>
</svg>