<?xml version="1.0" encoding="UTF-8"?>
<svg width="16px" height="16px" viewBox="0 0 16 16" version="1.1" xmlns="http://www.w3.org/2000/svg" xmlns:xlink="http://www.w3.org/1999/xlink">
    <title>tile-brick-wall-2</title>
    <g id="tile-brick-wall-2" stroke="none" stroke-width="1" fill="none" fill-rule="evenodd">
        <path d="M16,12 L16,13 L10,13 L10,15 L9,15 L9,12 L16,12 Z M8,12 L8,13 L0,13 L0,12 L8,12 Z M16,8 L16,9 L5,9 L5,11 L4,11 L4,8 L16,8 Z M3,8 L3,9 L0,9 L0,8 L3,8 Z M16,4 L16,5 L13,5 L13,7 L12,7 L12,4 L16,4 Z M11,4 L11,5 L0,5 L0,4 L11,4 Z M16,0 L16,1 L7,1 L7,3 L6,3 L6,0 L16,0 Z M5,0 L5,1 L0,1 L0,0 L5,0 Z" fill="#000000"></path>
    </g>
</svg>