<?xml version="1.0" encoding="UTF-8"?>
<svg width="16px" height="16px" viewBox="0 0 16 16" version="1.1" xmlns="http://www.w3.org/2000/svg" xmlns:xlink="http://www.w3.org/1999/xlink">
    <title>tile-grating</title>
    <g id="tile-grating" stroke="none" stroke-width="1" fill="none" fill-rule="evenodd">
        <path d="M7,8 L7,15 L0,15 L0,8 L7,8 Z M15,8 L15,15 L8,15 L8,8 L15,8 Z M2,13 L1,13 L1,14 L2,14 L2,13 Z M4,13 L3,13 L3,14 L4,14 L4,13 Z M6,13 L5,13 L5,14 L6,14 L6,13 Z M14,13 L13,13 L13,14 L14,14 L14,13 Z M12,13 L11,13 L11,14 L12,14 L12,13 Z M10,13 L9,13 L9,14 L10,14 L10,13 Z M3,12 L2,12 L2,13 L3,13 L3,12 Z M5,12 L4,12 L4,13 L5,13 L5,12 Z M13,12 L12,12 L12,13 L13,13 L13,12 Z M11,12 L10,12 L10,13 L11,13 L11,12 Z M2,11 L1,11 L1,12 L2,12 L2,11 Z M4,11 L3,11 L3,12 L4,12 L4,11 Z M6,11 L5,11 L5,12 L6,12 L6,11 Z M14,11 L13,11 L13,12 L14,12 L14,11 Z M12,11 L11,11 L11,12 L12,12 L12,11 Z M10,11 L9,11 L9,12 L10,12 L10,11 Z M3,10 L2,10 L2,11 L3,11 L3,10 Z M5,10 L4,10 L4,11 L5,11 L5,10 Z M13,10 L12,10 L12,11 L13,11 L13,10 Z M11,10 L10,10 L10,11 L11,11 L11,10 Z M14,9 L13,9 L13,10 L14,10 L14,9 Z M12,9 L11,9 L11,10 L12,10 L12,9 Z M10,9 L9,9 L9,10 L10,10 L10,9 Z M2,9 L1,9 L1,10 L2,10 L2,9 Z M4,9 L3,9 L3,10 L4,10 L4,9 Z M6,9 L5,9 L5,10 L6,10 L6,9 Z M7,0 L7,7 L0,7 L0,0 L7,0 Z M15,0 L15,7 L8,7 L8,0 L15,0 Z M2,5 L1,5 L1,6 L2,6 L2,5 Z M4,5 L3,5 L3,6 L4,6 L4,5 Z M6,5 L5,5 L5,6 L6,6 L6,5 Z M14,5 L13,5 L13,6 L14,6 L14,5 Z M12,5 L11,5 L11,6 L12,6 L12,5 Z M10,5 L9,5 L9,6 L10,6 L10,5 Z M5,4 L4,4 L4,5 L5,5 L5,4 Z M13,4 L12,4 L12,5 L13,5 L13,4 Z M11,4 L10,4 L10,5 L11,5 L11,4 Z M3,4 L2,4 L2,5 L3,5 L3,4 Z M2,3 L1,3 L1,4 L2,4 L2,3 Z M14,3 L13,3 L13,4 L14,4 L14,3 Z M12,3 L11,3 L11,4 L12,4 L12,3 Z M10,3 L9,3 L9,4 L10,4 L10,3 Z M6,3 L5,3 L5,4 L6,4 L6,3 Z M4,3 L3,3 L3,4 L4,4 L4,3 Z M13,2 L12,2 L12,3 L13,3 L13,2 Z M11,2 L10,2 L10,3 L11,3 L11,2 Z M3,2 L2,2 L2,3 L3,3 L3,2 Z M5,2 L4,2 L4,3 L5,3 L5,2 Z M14,1 L13,1 L13,2 L14,2 L14,1 Z M12,1 L11,1 L11,2 L12,2 L12,1 Z M4,1 L3,1 L3,2 L4,2 L4,1 Z M2,1 L1,1 L1,2 L2,2 L2,1 Z M6,1 L5,1 L5,2 L6,2 L6,1 Z M10,1 L9,1 L9,2 L10,2 L10,1 Z" fill="#000000"></path>
    </g>
</svg>