<?xml version="1.0" encoding="UTF-8"?>
<svg width="16px" height="16px" viewBox="0 0 16 16" version="1.1" xmlns="http://www.w3.org/2000/svg" xmlns:xlink="http://www.w3.org/1999/xlink">
    <title>times</title>
    <g id="times" stroke="none" stroke-width="1" fill="none" fill-rule="evenodd">
        <polygon fill="#000000" points="5.5 12.5 3.5 12.5 3.5 10.5 4.5 10.5 4.5 9.5 5.5 9.5 5.5 8.5 6.5 8.5 6.5 7.5 5.5 7.5 5.5 6.5 4.5 6.5 4.5 5.5 3.5 5.5 3.5 3.5 5.5 3.5 5.5 4.5 6.5 4.5 6.5 5.5 7.5 5.5 7.5 6.5 8.5 6.5 8.5 5.5 9.5 5.5 9.5 4.5 10.5 4.5 10.5 3.5 12.5 3.5 12.5 5.5 11.5 5.5 11.5 6.5 10.5 6.5 10.5 7.5 9.5 7.5 9.5 8.5 10.5 8.5 10.5 9.5 11.5 9.5 11.5 10.5 12.5 10.5 12.5 12.5 10.5 12.5 10.5 11.5 9.5 11.5 9.5 10.5 8.5 10.5 8.5 9.5 7.5 9.5 7.5 10.5 6.5 10.5 6.5 11.5 5.5 11.5"></polygon>
    </g>
</svg>