<?xml version="1.0" encoding="UTF-8"?>
<svg width="16px" height="16px" viewBox="0 0 16 16" version="1.1" xmlns="http://www.w3.org/2000/svg" xmlns:xlink="http://www.w3.org/1999/xlink">
    <title>tree</title>
    <g id="tree" stroke="none" stroke-width="1" fill="none" fill-rule="evenodd">
        <path d="M8,12 L8,14 L7,14 L7,15 L5,15 L5,14 L6,14 L6,12 L8,12 Z M11,14 L11,15 L10,15 L10,14 L11,14 Z M10,12 L10,14 L9,14 L9,12 L10,12 Z M13,13 L13,14 L12,14 L12,13 L13,13 Z M4,13 L4,14 L3,14 L3,13 L4,13 Z M12,12 L12,13 L11,13 L11,12 L12,12 Z M5,12 L5,13 L4,13 L4,12 L5,12 Z M10,1 L10,2 L12,2 L12,3 L13,3 L13,4 L14,4 L14,6 L15,6 L15,10 L14,10 L14,11 L11,11 L11,10 L12,10 L12,8 L11,8 L11,9 L10,9 L10,10 L9,10 L9,11 L8,11 L8,10 L7,10 L7,8 L6,8 L6,10 L5,10 L5,9 L3,9 L3,10 L4,10 L4,11 L2,11 L2,10 L1,10 L1,6 L2,6 L2,4 L3,4 L3,3 L4,3 L4,2 L6,2 L6,1 L10,1 Z M6,7 L5,7 L5,8 L6,8 L6,7 Z" fill="#000000"></path>
    </g>
</svg>