<?xml version="1.0" encoding="UTF-8"?>
<svg width="16px" height="16px" viewBox="0 0 16 16" version="1.1" xmlns="http://www.w3.org/2000/svg" xmlns:xlink="http://www.w3.org/1999/xlink">
    <title>tree-2</title>
    <g id="tree-2" stroke="none" stroke-width="1" fill="none" fill-rule="evenodd">
        <path d="M6,16 L5,16 L5,15 L6,15 L6,14 L10,14 L10,15 L11,15 L11,16 L9,16 L9,15 L8,15 L8,16 L7,16 L7,15 L6,15 L6,16 Z M10,2 L10,3 L12,3 L12,4 L13,4 L13,5 L14,5 L14,7 L13,7 L13,8 L12,8 L12,9 L14,9 L14,8 L15,8 L15,11 L14,11 L14,12 L12,12 L12,13 L4,13 L4,12 L2,12 L2,11 L1,11 L1,8 L2,8 L2,9 L4,9 L4,8 L3,8 L3,7 L2,7 L2,5 L3,5 L3,4 L4,4 L4,3 L6,3 L6,2 L10,2 Z M6,9 L4,9 L4,10 L6,10 L6,9 Z M12,9 L10,9 L10,10 L12,10 L12,9 Z" fill="#000000"></path>
    </g>
</svg>