<?xml version="1.0" encoding="UTF-8"?>
<svg width="16px" height="16px" viewBox="0 0 16 16" version="1.1" xmlns="http://www.w3.org/2000/svg" xmlns:xlink="http://www.w3.org/1999/xlink">
    <title>trousers-2</title>
    <g id="trousers-2" stroke="none" stroke-width="1" fill="none" fill-rule="evenodd">
        <path d="M7,13 L7,14 L3,14 L3,13 L7,13 Z M13,13 L13,14 L9,14 L9,13 L13,13 Z M13,3 L13,12 L9,12 L9,8 L7,8 L7,12 L3,12 L3,3 L13,3 Z M6,4 L4,4 L4,5 L6,5 L6,4 Z M9,4 L7,4 L7,5 L9,5 L9,4 Z M12,4 L10,4 L10,5 L12,5 L12,4 Z" fill="#000000"></path>
    </g>
</svg>