<?xml version="1.0" encoding="UTF-8"?>
<svg width="16px" height="16px" viewBox="0 0 16 16" version="1.1" xmlns="http://www.w3.org/2000/svg" xmlns:xlink="http://www.w3.org/1999/xlink">
    <title>trousers</title>
    <g id="trousers" stroke="none" stroke-width="1" fill="none" fill-rule="evenodd">
        <path d="M7,13 L7,14 L4,14 L4,13 L7,13 Z M12,13 L12,14 L9,14 L9,13 L12,13 Z M13,3 L13,12 L9,12 L9,8 L7,8 L7,12 L3,12 L3,3 L13,3 Z M5,5 L4,5 L4,6 L5,6 L5,5 Z M12,5 L11,5 L11,6 L12,6 L12,5 Z M6,4 L5,4 L5,5 L6,5 L6,4 Z M11,4 L10,4 L10,5 L11,5 L11,4 Z" fill="#000000"></path>
    </g>
</svg>