<?xml version="1.0" encoding="UTF-8"?>
<svg width="16px" height="16px" viewBox="0 0 16 16" version="1.1" xmlns="http://www.w3.org/2000/svg" xmlns:xlink="http://www.w3.org/1999/xlink">
    <title>umbrella</title>
    <g id="umbrella" stroke="none" stroke-width="1" fill="none" fill-rule="evenodd">
        <path d="M9,10 L9,13 L10,13 L10,12 L12,12 L12,14 L11,14 L11,15 L8,15 L8,14 L7,14 L7,10 L9,10 Z M10,2 L10,3 L12,3 L12,4 L13,4 L13,6 L14,6 L14,9 L2,9 L2,6 L3,6 L3,4 L4,4 L4,3 L6,3 L6,2 L10,2 Z" fill="#000000"></path>
    </g>
</svg>