<?xml version="1.0" encoding="UTF-8"?>
<svg width="16px" height="16px" viewBox="0 0 16 16" version="1.1" xmlns="http://www.w3.org/2000/svg" xmlns:xlink="http://www.w3.org/1999/xlink">
    <title>vampire</title>
    <g id="vampire" stroke="none" stroke-width="1" fill="none" fill-rule="evenodd">
        <path d="M12,10 L12,12 L13,12 L13,13 L14,13 L14,15 L13,15 L13,16 L10,16 L10,15 L9,15 L9,14 L8,14 L8,12 L7,12 L7,15 L6,15 L6,16 L3,16 L3,15 L2,15 L2,13 L3,13 L3,12 L4,12 L4,10 L5,10 L5,9 L4,9 L4,7 L2,7 L2,6 L1,6 L1,5 L3,5 L3,3 L4,3 L4,4 L5,4 L5,3 L7,3 L7,4 L9,4 L9,3 L11,3 L11,4 L12,4 L12,3 L13,3 L13,5 L15,5 L15,6 L14,6 L14,7 L12,7 L12,9 L11,9 L11,10 L9,10 L9,11 L11,11 L11,10 L12,10 Z M7,10 L5,10 L5,11 L7,11 L7,10 Z M9,7 L7,7 L7,8 L6,8 L6,9 L10,9 L10,8 L9,8 L9,7 Z M11,7 L10,7 L10,8 L11,8 L11,7 Z M6,7 L5,7 L5,8 L6,8 L6,7 Z M7,4 L5,4 L5,5 L6,5 L6,6 L7,6 L7,4 Z M11,4 L9,4 L9,6 L10,6 L10,5 L11,5 L11,4 Z M5,1 L5,2 L4,2 L4,1 L5,1 Z M12,1 L12,2 L11,2 L11,1 L12,1 Z M11,0 L11,1 L5,1 L5,0 L11,0 Z" fill="#000000"></path>
    </g>
</svg>